<svg xmlns="http://www.w3.org/2000/svg" version="1.2" baseProfile="tiny" viewBox="0 0 1000 1000">
  <title>NextGen Vending Email Logo</title>
  <desc>Red square icon with a white monogram for email sender logo.</desc>
  <rect x="0" y="0" width="1000" height="1000" fill="#E32727"></rect>
  <path fill="#FFFFFF" d="M297.47,136.16l38,727.68,37.85-64.57h252.4l39.53,64.57,37.26-727.68ZM578.4,602.41H444.52l65.41,88.78a12.54,12.54,0,1,1-20.19,14.88L412.82,601.66a15.69,15.69,0,0,1,13.09-24.35H578.4a12.55,12.55,0,0,1,0,25.1ZM591,540.94a11.62,11.62,0,1,1-23.24,0V431.22H433.42v98.1h54.8V484.58a11.62,11.62,0,1,1,23.24,0v53a15,15,0,0,1-14.94,14.94h-71.4a15,15,0,0,1-14.94-14.94V422.92A15,15,0,0,1,425.12,408H576A15,15,0,0,1,591,422.92Zm0-173.63A15,15,0,0,1,576,382.24H421.8a11.62,11.62,0,1,1,0-23.23H567.73V260.17H421.8a11.62,11.62,0,0,1,0-23.24H576A15,15,0,0,1,591,251.87Z"></path>
</svg>
